<svg width="180" height="180" viewBox="0 0 180 180" fill="none" xmlns="http://www.w3.org/2000/svg">
<rect width="180" height="180" rx="40" fill="#6366f1"/>
<path fill-rule="evenodd" clip-rule="evenodd" d="M28.4375 151.875V146.835V95.9062H84.4219V151.875H28.4375ZM40.1074 140.205H72.752V107.576H40.1074V140.205Z" fill="white"/>
<path fill-rule="evenodd" clip-rule="evenodd" d="M28.125 84.0469V78.9995V28.125H83.9531V84.0469H28.125Z" fill="white"/>
<path fill-rule="evenodd" clip-rule="evenodd" d="M123.636 84.0469C108.341 84.0469 95.7656 71.4715 95.7656 56.1758C95.7656 40.8801 108.341 28.3047 123.636 28.3047C138.932 28.3047 151.507 40.8801 151.507 56.1758C151.507 71.4715 138.932 84.0469 123.636 84.0469ZM123.636 72.377C132.492 72.377 139.837 65.0317 139.837 56.1758C139.837 47.3199 132.492 39.9746 123.636 39.9746C114.78 39.9746 107.435 47.3199 107.435 56.1758C107.435 65.0317 114.78 72.377 123.636 72.377Z" fill="white"/>
</svg>
