<svg width="32" height="32" viewBox="0 0 32 32" fill="none" xmlns="http://www.w3.org/2000/svg">
<rect width="32" height="32" rx="6" fill="#6366f1"/>
<path fill-rule="evenodd" clip-rule="evenodd" d="M5.07812 27V25.9739V17.0406H15.0375V27H5.07812ZM7.13042 24.9477H12.9852V19.0929H7.13042V24.9477Z" fill="white"/>
<path fill-rule="evenodd" clip-rule="evenodd" d="M5 14.9594V13.9332V5H14.9594V14.9594H5Z" fill="white"/>
<path fill-rule="evenodd" clip-rule="evenodd" d="M22.0202 14.9594C19.2821 14.9594 17.0405 12.7178 17.0405 9.9797C17.0405 7.24164 19.2821 5 22.0202 5C24.7582 5 26.9999 7.24164 26.9999 9.9797C26.9999 12.7178 24.7582 14.9594 22.0202 14.9594ZM22.0202 12.9071C23.6491 12.9071 24.9476 11.6086 24.9476 9.9797C24.9476 8.35079 23.6491 7.05229 22.0202 7.05229C20.3913 7.05229 19.0928 8.35079 19.0928 9.9797C19.0928 11.6086 20.3913 12.9071 22.0202 12.9071Z" fill="white"/>
</svg>
